<svg width="38" height="40" viewBox="0 0 38 40" fill="none" xmlns="http://www.w3.org/2000/svg">
<g filter="url(#filter0_d_908_258)">
<path d="M30.6875 17.8074V16.9999V16.1818L32.7275 14.3968C33.1035 14.0653 33.3503 13.6116 33.4242 13.1158C33.4981 12.62 33.3943 12.1141 33.1313 11.6874L30.6238 7.43738C30.4374 7.11466 30.1695 6.84661 29.8469 6.66012C29.5243 6.47363 29.1583 6.37526 28.7856 6.37488C28.5547 6.37311 28.325 6.409 28.1056 6.48113L25.5238 7.35238C25.078 7.05617 24.613 6.78995 24.1319 6.55551L23.59 3.87801C23.4928 3.38884 23.2267 2.94943 22.8382 2.63669C22.4498 2.32396 21.9636 2.15783 21.465 2.16738H16.4925C15.9939 2.15783 15.5078 2.32396 15.1193 2.63669C14.7308 2.94943 14.4647 3.38884 14.3675 3.87801L13.8256 6.55551C13.3411 6.7899 12.8725 7.0561 12.4231 7.35238L9.89438 6.43863C9.67264 6.38086 9.443 6.35933 9.21438 6.37488C8.84174 6.37526 8.47574 6.47363 8.15312 6.66012C7.83049 6.84661 7.56258 7.11466 7.37626 7.43738L4.86876 11.6874C4.62076 12.1134 4.5286 12.6125 4.60807 13.099C4.68755 13.5855 4.9337 14.0293 5.30438 14.3543L7.31251 16.1924V17.818L5.30438 19.603C4.92323 19.9303 4.67034 20.382 4.59059 20.878C4.51085 21.3739 4.6094 21.8821 4.86876 22.3124L7.37626 26.5624C7.56258 26.8851 7.83049 27.1532 8.15312 27.3396C8.47574 27.5261 8.84174 27.6245 9.21438 27.6249C9.44532 27.6267 9.675 27.5908 9.89438 27.5186L12.4763 26.6474C12.922 26.9436 13.387 27.2098 13.8681 27.4443L14.41 30.1218C14.5072 30.6109 14.7733 31.0503 15.1618 31.3631C15.5503 31.6758 16.0364 31.8419 16.535 31.8324H21.55C22.0486 31.8419 22.5347 31.6758 22.9232 31.3631C23.3117 31.0503 23.5778 30.6109 23.675 30.1218L24.2169 27.4443C24.7015 27.2099 25.17 26.9437 25.6194 26.6474L28.1906 27.5186C28.41 27.5908 28.6397 27.6267 28.8706 27.6249C29.2433 27.6245 29.6093 27.5261 29.9319 27.3396C30.2545 27.1532 30.5224 26.8851 30.7088 26.5624L33.1313 22.3124C33.3793 21.8863 33.4714 21.3873 33.3919 20.9008C33.3125 20.4143 33.0663 19.9705 32.6956 19.6455L30.6875 17.8074ZM28.7856 25.4999L25.1413 24.2674C24.2881 24.99 23.3131 25.5549 22.2619 25.9355L21.5075 29.7499H16.4925L15.7381 25.978C14.6952 25.5866 13.7255 25.0227 12.8694 24.3099L9.21438 25.4999L6.70688 21.2499L9.59688 18.6999C9.40042 17.6 9.40042 16.4741 9.59688 15.3743L6.70688 12.7499L9.21438 8.49988L12.8588 9.73238C13.7119 9.00977 14.6869 8.4449 15.7381 8.06426L16.4925 4.24988H21.5075L22.2619 8.02176C23.3048 8.41321 24.2746 8.9771 25.1306 9.68988L28.7856 8.49988L31.2931 12.7499L28.4031 15.2999C28.5996 16.3997 28.5996 17.5257 28.4031 18.6255L31.2931 21.2499L28.7856 25.4999Z" fill="white"/>
<path d="M19 23.375C17.7391 23.375 16.5066 23.0011 15.4582 22.3006C14.4099 21.6001 13.5928 20.6045 13.1103 19.4396C12.6278 18.2747 12.5015 16.9929 12.7475 15.7563C12.9935 14.5197 13.6006 13.3838 14.4922 12.4922C15.3838 11.6006 16.5197 10.9935 17.7563 10.7475C18.9929 10.5015 20.2747 10.6278 21.4396 11.1103C22.6045 11.5928 23.6001 12.4099 24.3006 13.4582C25.0011 14.5066 25.375 15.7391 25.375 17C25.3835 17.8396 25.2245 18.6724 24.9071 19.4497C24.5897 20.227 24.1205 20.9331 23.5268 21.5268C22.9331 22.1205 22.227 22.5897 21.4497 22.9071C20.6724 23.2245 19.8396 23.3835 19 23.375ZM19 12.75C18.4383 12.7369 17.8798 12.8379 17.3582 13.0469C16.8367 13.2558 16.363 13.5684 15.9657 13.9657C15.5684 14.363 15.2558 14.8367 15.0469 15.3582C14.8379 15.8798 14.7369 16.4383 14.75 17C14.7369 17.5617 14.8379 18.1202 15.0469 18.6418C15.2558 19.1633 15.5684 19.6371 15.9657 20.0343C16.363 20.4316 16.8367 20.7442 17.3582 20.9532C17.8798 21.1621 18.4383 21.2631 19 21.25C19.5617 21.2631 20.1202 21.1621 20.6418 20.9532C21.1633 20.7442 21.6371 20.4316 22.0343 20.0343C22.4316 19.6371 22.7442 19.1633 22.9532 18.6418C23.1621 18.1202 23.2631 17.5617 23.25 17C23.2631 16.4383 23.1621 15.8798 22.9532 15.3582C22.7442 14.8367 22.4316 14.363 22.0343 13.9657C21.6371 13.5684 21.1633 13.2558 20.6418 13.0469C20.1202 12.8379 19.5617 12.7369 19 12.75Z" fill="white"/>
</g>
<defs>
<filter id="filter0_d_908_258" x="-2" y="0" width="42" height="42" filterUnits="userSpaceOnUse" color-interpolation-filters="sRGB">
<feFlood flood-opacity="0" result="BackgroundImageFix"/>
<feColorMatrix in="SourceAlpha" type="matrix" values="0 0 0 0 0 0 0 0 0 0 0 0 0 0 0 0 0 0 127 0" result="hardAlpha"/>
<feOffset dy="4"/>
<feGaussianBlur stdDeviation="2"/>
<feComposite in2="hardAlpha" operator="out"/>
<feColorMatrix type="matrix" values="0 0 0 0 0 0 0 0 0 0 0 0 0 0 0 0 0 0 0.25 0"/>
<feBlend mode="normal" in2="BackgroundImageFix" result="effect1_dropShadow_908_258"/>
<feBlend mode="normal" in="SourceGraphic" in2="effect1_dropShadow_908_258" result="shape"/>
</filter>
</defs>
</svg>
